<svg width="22" height="20" viewBox="0 0 22 20" fill="none" xmlns="http://www.w3.org/2000/svg">
<path d="M7.56004 2.00001V15M14.73 4.62001V18M1.29004 5.78001V15.51C1.29004 17.41 2.64004 18.19 4.28004 17.25L6.63004 15.91C7.14004 15.62 7.99004 15.59 8.52004 15.86L13.77 18.49C14.3 18.75 15.15 18.73 15.66 18.44L19.99 15.96C20.54 15.64 21 14.86 21 14.22V4.49001C21 2.59001 19.65 1.81001 18.01 2.75001L15.66 4.09001C15.15 4.38001 14.3 4.41001 13.77 4.14001L8.52004 1.52001C7.99004 1.26001 7.14004 1.28001 6.63004 1.57001L2.30004 4.05001C1.74004 4.37001 1.29004 5.15001 1.29004 5.78001V5.78001Z" stroke="black" stroke-width="1.5" stroke-linecap="round" stroke-linejoin="round"/>
</svg>
